<?xml version="1.0" encoding="UTF-8" standalone="no"?>
<!-- Generator: Adobe Illustrator 19.0.0, SVG Export Plug-In . SVG Version: 6.00 Build 0)  -->

<svg
   version="1.1"
   id="Layer_1"
   x="0px"
   y="0px"
   viewBox="0 0 24.070206 18.549009"
   xml:space="preserve"
   sodipodi:docname="eraser-small.svg"
   inkscape:version="1.2.2 (b0a84865, 2022-12-01)"
   width="24.070206"
   height="18.549009"
   xmlns:inkscape="http://www.inkscape.org/namespaces/inkscape"
   xmlns:sodipodi="http://sodipodi.sourceforge.net/DTD/sodipodi-0.dtd"
   xmlns="http://www.w3.org/2000/svg"
   xmlns:svg="http://www.w3.org/2000/svg"><defs
   id="defs190" /><sodipodi:namedview
   id="namedview188"
   pagecolor="#ffffff"
   bordercolor="#000000"
   borderopacity="0.25"
   inkscape:showpageshadow="2"
   inkscape:pageopacity="0.0"
   inkscape:pagecheckerboard="0"
   inkscape:deskcolor="#d1d1d1"
   showgrid="false"
   inkscape:zoom="3.9803492"
   inkscape:cx="47.608889"
   inkscape:cy="42.458587"
   inkscape:window-width="1728"
   inkscape:window-height="968"
   inkscape:window-x="0"
   inkscape:window-y="38"
   inkscape:window-maximized="1"
   inkscape:current-layer="Layer_1"
   width="50px"
   height="50px" />
<g
   id="g155"
   transform="matrix(0.06922807,0,0,0.06480756,-2.3647916e-5,-1.9920912)">
	<path
   style="fill:#009bde"
   d="m 259.199,32.336 c 13.756,-5.006 29.104,2.152 34.109,15.906 l 52.789,145.036 c 5.006,13.754 -2.15,29.103 -15.906,34.11 L 97.635,312.031 C 83.881,317.037 68.531,309.879 63.526,296.124 L 10.736,151.089 c -5.006,-13.753 2.152,-29.103 15.906,-34.11 z"
   id="path113" />
	<path
   style="fill:#ff8189"
   d="m 133.701,78.013 c 13.754,-5.006 29.104,2.151 34.107,15.906 L 220.6,238.955 c 5.006,13.755 -2.15,29.104 -15.906,34.11 L 97.635,312.031 C 83.881,317.037 68.531,309.879 63.526,296.124 L 10.736,151.089 c -5.006,-13.753 2.152,-29.103 15.906,-34.11 z"
   id="path115" />
	<g
   style="opacity:0.7"
   id="g135">
		<circle
   style="fill:#e8e8e8"
   cx="254.02299"
   cy="58.852001"
   r="3.1930001"
   id="circle117" />
		<circle
   style="fill:#e8e8e8"
   cx="273.14899"
   cy="148.748"
   r="3.1930001"
   id="circle119" />
		<path
   style="fill:#e8e8e8"
   d="m 325.867,198.663 c -1.656,0.602 -2.512,2.436 -1.908,4.093 0.604,1.657 2.436,2.511 4.094,1.909 1.654,-0.603 2.51,-2.437 1.908,-4.094 -0.604,-1.656 -2.438,-2.512 -4.094,-1.908 z"
   id="path121" />
		<circle
   style="fill:#e8e8e8"
   cx="285.45901"
   cy="106.318"
   r="3.1930001"
   id="circle123" />
		<circle
   style="fill:#e8e8e8"
   cx="158.78101"
   cy="262.875"
   r="3.194"
   id="circle125" />
		<circle
   style="fill:#e8e8e8"
   cx="124.827"
   cy="222.882"
   r="3.194"
   id="circle127" />
		<circle
   style="fill:#e8e8e8"
   cx="121.375"
   cy="169.438"
   r="3.1930001"
   id="circle129" />
		<circle
   style="fill:#e8e8e8"
   cx="85.966003"
   cy="131.674"
   r="3.1930001"
   id="circle131" />
		<circle
   style="fill:#e8e8e8"
   cx="295.53201"
   cy="185.34801"
   r="3.194"
   id="circle133" />
	</g>
	<path
   style="fill:#d16a70"
   d="m 35.293,113.831 c 13.754,-5.006 29.102,2.152 34.107,15.906 l 52.789,145.037 c 5.006,13.753 -2.15,29.103 -15.904,34.109 l -17.789,6.475 C 74.742,320.364 59.392,313.205 54.385,299.451 L 1.598,154.415 c -5.006,-13.753 2.15,-29.103 15.906,-34.11 z"
   id="path137" />
	<g
   id="g143">
		
			<rect
   x="166.563"
   y="79.156998"
   transform="matrix(0.3421,0.9397,-0.9397,0.3421,233.6784,-86.5232)"
   style="fill:#ffffff"
   width="24.131001"
   height="88.916"
   id="rect139" />
		
			<rect
   x="185.25301"
   y="161.645"
   transform="matrix(0.3421,0.9397,-0.9397,0.3421,294.2239,-70.304)"
   style="fill:#ffffff"
   width="24.131001"
   height="26.634001"
   id="rect141" />
	</g>
	<g
   style="opacity:0.7"
   id="g153">
		<circle
   style="fill:#e8e8e8"
   cx="70.879997"
   cy="171.149"
   r="3.194"
   id="circle145" />
		<circle
   style="fill:#e8e8e8"
   cx="32.874001"
   cy="144.201"
   r="3.1930001"
   id="circle147" />
		<circle
   style="fill:#e8e8e8"
   cx="95.238998"
   cy="273.867"
   r="3.194"
   id="circle149" />
		<circle
   style="fill:#e8e8e8"
   cx="48.98"
   cy="232.36301"
   r="3.1930001"
   id="circle151" />
	</g>
</g>
<g
   id="g157"
   transform="translate(-1.4736183,-2.7462399)">
</g>
<g
   id="g159"
   transform="translate(-1.4736183,-2.7462399)">
</g>
<g
   id="g161"
   transform="translate(-1.4736183,-2.7462399)">
</g>
<g
   id="g163"
   transform="translate(-1.4736183,-2.7462399)">
</g>
<g
   id="g165"
   transform="translate(-1.4736183,-2.7462399)">
</g>
<g
   id="g167"
   transform="translate(-1.4736183,-2.7462399)">
</g>
<g
   id="g169"
   transform="translate(-1.4736183,-2.7462399)">
</g>
<g
   id="g171"
   transform="translate(-1.4736183,-2.7462399)">
</g>
<g
   id="g173"
   transform="translate(-1.4736183,-2.7462399)">
</g>
<g
   id="g175"
   transform="translate(-1.4736183,-2.7462399)">
</g>
<g
   id="g177"
   transform="translate(-1.4736183,-2.7462399)">
</g>
<g
   id="g179"
   transform="translate(-1.4736183,-2.7462399)">
</g>
<g
   id="g181"
   transform="translate(-1.4736183,-2.7462399)">
</g>
<g
   id="g183"
   transform="translate(-1.4736183,-2.7462399)">
</g>
<g
   id="g185"
   transform="translate(-1.4736183,-2.7462399)">
</g>
</svg>
